<svg xmlns="http://www.w3.org/2000/svg" viewBox="0 0 24 24" fill="currentColor">
  <!-- 後ろの人（左） -->
  <circle cx="6" cy="6" r="2" opacity="0.6"/>
  <path d="M6 8.5c-1.86 0-5.6 0.93-5.6 2.8V13h11.2v-1.7c0-1.87-3.74-2.8-5.6-2.8z" opacity="0.6"/>
  <!-- 前の人（中央） -->
  <circle cx="12" cy="7.5" r="2.5"/>
  <path d="M12 11c-2.33 0-7 1.17-7 3.5V17h14v-2.5c0-2.33-4.67-3.5-7-3.5z"/>
  <!-- 後ろの人（右） -->
  <circle cx="18" cy="6" r="2" opacity="0.6"/>
  <path d="M18 8.5c-1.86 0-5.6 0.93-5.6 2.8V13h11.2v-1.7c0-1.87-3.74-2.8-5.6-2.8z" opacity="0.6"/>
</svg>
