<svg xmlns="http://www.w3.org/2000/svg" viewBox="0 0 24 24" fill="currentColor">
  <!-- 中心の円 -->
  <circle cx="12" cy="12" r="3"/>
  <!-- 爆発の火花（8方向） -->
  <path d="M12 2l1 4-1-4z"/>
  <path d="M22 12l-4 1 4-1z"/>
  <path d="M12 22l-1-4 1 4z"/>
  <path d="M2 12l4-1-4 1z"/>
  <path d="M18.5 5.5l-2.8 2.8 2.8-2.8z"/>
  <path d="M18.5 18.5l-2.8-2.8 2.8 2.8z"/>
  <path d="M5.5 18.5l2.8-2.8-2.8 2.8z"/>
  <path d="M5.5 5.5l2.8 2.8-2.8-2.8z"/>
  <!-- 追加の小さな火花 -->
  <circle cx="12" cy="5" r="1.5"/>
  <circle cx="17" cy="7" r="1"/>
  <circle cx="19" cy="12" r="1.5"/>
  <circle cx="17" cy="17" r="1"/>
  <circle cx="12" cy="19" r="1.5"/>
  <circle cx="7" cy="17" r="1"/>
  <circle cx="5" cy="12" r="1.5"/>
  <circle cx="7" cy="7" r="1"/>
</svg>
